<svg width="188" height="36" viewBox="0 0 188 36" fill="none" xmlns="http://www.w3.org/2000/svg">
<path d="M45.0455 35.3835C43.0597 35.3835 41.3423 34.9616 39.8935 34.1179C38.4531 33.2656 37.3409 32.081 36.5568 30.5639C35.7727 29.0384 35.3807 27.2699 35.3807 25.2585C35.3807 23.2301 35.7727 21.4574 36.5568 19.9403C37.3409 18.4148 38.4531 17.2301 39.8935 16.3864C41.3423 15.5341 43.0597 15.108 45.0455 15.108C47.0312 15.108 48.7443 15.5341 50.1847 16.3864C51.6335 17.2301 52.75 18.4148 53.5341 19.9403C54.3182 21.4574 54.7102 23.2301 54.7102 25.2585C54.7102 27.2699 54.3182 29.0384 53.5341 30.5639C52.75 32.081 51.6335 33.2656 50.1847 34.1179C48.7443 34.9616 47.0312 35.3835 45.0455 35.3835ZM45.071 31.1648C45.9744 31.1648 46.7287 30.9091 47.3338 30.3977C47.9389 29.8778 48.3949 29.1705 48.7017 28.2756C49.017 27.3807 49.1747 26.3622 49.1747 25.2202C49.1747 24.0781 49.017 23.0597 48.7017 22.1648C48.3949 21.2699 47.9389 20.5625 47.3338 20.0426C46.7287 19.5227 45.9744 19.2628 45.071 19.2628C44.1591 19.2628 43.392 19.5227 42.7699 20.0426C42.1563 20.5625 41.6918 21.2699 41.3764 22.1648C41.0696 23.0597 40.9162 24.0781 40.9162 25.2202C40.9162 26.3622 41.0696 27.3807 41.3764 28.2756C41.6918 29.1705 42.1563 29.8778 42.7699 30.3977C43.392 30.9091 44.1591 31.1648 45.071 31.1648ZM67.1236 35.3835C65.1378 35.3835 63.4205 34.9616 61.9716 34.1179C60.5313 33.2656 59.419 32.081 58.6349 30.5639C57.8509 29.0384 57.4588 27.2699 57.4588 25.2585C57.4588 23.2301 57.8509 21.4574 58.6349 19.9403C59.419 18.4148 60.5313 17.2301 61.9716 16.3864C63.4205 15.5341 65.1378 15.108 67.1236 15.108C69.1094 15.108 70.8224 15.5341 72.2628 16.3864C73.7116 17.2301 74.8281 18.4148 75.6122 19.9403C76.3963 21.4574 76.7884 23.2301 76.7884 25.2585C76.7884 27.2699 76.3963 29.0384 75.6122 30.5639C74.8281 32.081 73.7116 33.2656 72.2628 34.1179C70.8224 34.9616 69.1094 35.3835 67.1236 35.3835ZM67.1491 31.1648C68.0526 31.1648 68.8068 30.9091 69.4119 30.3977C70.017 29.8778 70.473 29.1705 70.7798 28.2756C71.0952 27.3807 71.2528 26.3622 71.2528 25.2202C71.2528 24.0781 71.0952 23.0597 70.7798 22.1648C70.473 21.2699 70.017 20.5625 69.4119 20.0426C68.8068 19.5227 68.0526 19.2628 67.1491 19.2628C66.2372 19.2628 65.4702 19.5227 64.848 20.0426C64.2344 20.5625 63.7699 21.2699 63.4545 22.1648C63.1477 23.0597 62.9943 24.0781 62.9943 25.2202C62.9943 26.3622 63.1477 27.3807 63.4545 28.2756C63.7699 29.1705 64.2344 29.8778 64.848 30.3977C65.4702 30.9091 66.2372 31.1648 67.1491 31.1648ZM85.7756 8.81818V35H80.3295V8.81818H85.7756ZM90.2404 35V8.81818H95.6864V18.6619H95.8526C96.0913 18.1335 96.4364 17.5966 96.8881 17.0511C97.3484 16.4972 97.945 16.0369 98.6779 15.6705C99.4194 15.2955 100.34 15.108 101.439 15.108C102.871 15.108 104.192 15.483 105.402 16.233C106.613 16.9744 107.58 18.0952 108.304 19.5952C109.029 21.0866 109.391 22.9574 109.391 25.2074C109.391 27.3977 109.037 29.2472 108.33 30.7557C107.631 32.2557 106.676 33.3935 105.466 34.169C104.265 34.9361 102.918 35.3196 101.426 35.3196C100.37 35.3196 99.4705 35.1449 98.729 34.7955C97.9961 34.446 97.3952 34.0071 96.9265 33.4787C96.4577 32.9418 96.0998 32.4006 95.8526 31.8551H95.6097V35H90.2404ZM95.5714 25.1818C95.5714 26.3494 95.7333 27.3679 96.0572 28.2372C96.381 29.1065 96.8498 29.7841 97.4634 30.2699C98.0771 30.7472 98.8228 30.9858 99.7006 30.9858C100.587 30.9858 101.337 30.7429 101.951 30.2571C102.564 29.7628 103.029 29.081 103.344 28.2116C103.668 27.3338 103.83 26.3239 103.83 25.1818C103.83 24.0483 103.672 23.0511 103.357 22.1903C103.042 21.3295 102.577 20.6562 101.963 20.1705C101.35 19.6847 100.596 19.4418 99.7006 19.4418C98.8143 19.4418 98.0643 19.6761 97.4506 20.1449C96.8455 20.6136 96.381 21.2784 96.0572 22.1392C95.7333 23 95.5714 24.0142 95.5714 25.1818ZM118.624 35.3707C117.371 35.3707 116.255 35.1534 115.275 34.7188C114.295 34.2756 113.519 33.6236 112.948 32.7628C112.386 31.8935 112.104 30.8111 112.104 29.5156C112.104 28.4247 112.305 27.5085 112.705 26.767C113.106 26.0256 113.651 25.429 114.342 24.9773C115.032 24.5256 115.816 24.1847 116.694 23.9545C117.58 23.7244 118.509 23.5625 119.481 23.4688C120.623 23.3494 121.543 23.2386 122.242 23.1364C122.941 23.0256 123.448 22.8636 123.763 22.6506C124.079 22.4375 124.237 22.1222 124.237 21.7045V21.6278C124.237 20.8182 123.981 20.1918 123.469 19.7486C122.967 19.3054 122.251 19.0838 121.322 19.0838C120.342 19.0838 119.562 19.3011 118.982 19.7358C118.403 20.1619 118.019 20.6989 117.832 21.3466L112.795 20.9375C113.05 19.7443 113.553 18.7131 114.303 17.8438C115.053 16.9659 116.021 16.2926 117.205 15.8239C118.398 15.3466 119.779 15.108 121.347 15.108C122.438 15.108 123.482 15.2358 124.479 15.4915C125.485 15.7472 126.376 16.1435 127.151 16.6804C127.935 17.2173 128.553 17.9077 129.005 18.7514C129.457 19.5866 129.683 20.5881 129.683 21.7557V35H124.518V32.277H124.364C124.049 32.8906 123.627 33.4318 123.099 33.9006C122.57 34.3608 121.935 34.723 121.194 34.9872C120.452 35.2429 119.596 35.3707 118.624 35.3707ZM120.184 31.6122C120.985 31.6122 121.692 31.4545 122.306 31.1392C122.92 30.8153 123.401 30.3807 123.751 29.8352C124.1 29.2898 124.275 28.6719 124.275 27.9815V25.8977C124.104 26.0085 123.87 26.1108 123.572 26.2045C123.282 26.2898 122.954 26.3707 122.587 26.4474C122.221 26.5156 121.854 26.5795 121.488 26.6392C121.121 26.6903 120.789 26.7372 120.491 26.7798C119.852 26.8736 119.293 27.0227 118.816 27.2273C118.339 27.4318 117.968 27.7088 117.704 28.0582C117.44 28.3991 117.308 28.8253 117.308 29.3366C117.308 30.0781 117.576 30.6449 118.113 31.0369C118.658 31.4205 119.349 31.6122 120.184 31.6122ZM133.908 35V15.3636H139.188V18.7898H139.392C139.75 17.571 140.351 16.6506 141.195 16.0284C142.038 15.3977 143.01 15.0824 144.109 15.0824C144.382 15.0824 144.676 15.0994 144.991 15.1335C145.307 15.1676 145.584 15.2145 145.822 15.2741V20.1065C145.567 20.0298 145.213 19.9616 144.761 19.902C144.31 19.8423 143.896 19.8125 143.521 19.8125C142.72 19.8125 142.004 19.9872 141.374 20.3366C140.751 20.6776 140.257 21.1548 139.891 21.7685C139.533 22.3821 139.354 23.0895 139.354 23.8906V35H133.908Z" fill="white"/>
<path d="M157.677 35C156.909 35 156.369 34.772 156.057 34.316C155.769 33.86 155.769 33.236 156.057 32.444L163.905 11.564C164.337 10.388 165.189 9.8 166.461 9.8H166.785C168.057 9.8 168.909 10.388 169.341 11.564L177.189 32.444C177.477 33.236 177.465 33.86 177.153 34.316C176.865 34.772 176.325 35 175.533 35H174.777C173.505 35 172.665 34.388 172.257 33.164L171.177 29.996H161.925L160.845 33.164C160.461 34.388 159.621 35 158.325 35H157.677ZM163.437 25.676H169.701L166.605 16.532L163.437 25.676ZM183.209 35C181.649 35 180.869 34.208 180.869 32.624V12.176C180.869 10.592 181.649 9.8 183.209 9.8C184.769 9.8 185.549 10.592 185.549 12.176V32.624C185.549 34.208 184.769 35 183.209 35Z" fill="#AA60B2"/>
<g clip-path="url(#clip0_2031_4061)">
<path d="M22.7644 10.5341V29.7705C22.765 30.1386 22.7262 30.5057 22.6486 30.8656C22.3971 32.0357 21.7522 33.0843 20.8214 33.8366C19.8905 34.589 18.73 34.9996 17.5331 35.0001H17.4674C16.7805 35.0002 16.1002 34.8649 15.4656 34.6021C14.831 34.3393 14.2543 33.9541 13.7686 33.4684C13.2829 32.9827 12.8976 32.406 12.6348 31.7714C12.372 31.1368 12.2367 30.4566 12.2368 29.7698V20.6967C12.2337 18.9679 12.6743 17.2672 13.5165 15.7574C13.5752 15.6479 13.6377 15.5407 13.7019 15.4336C14.608 13.9353 15.8856 12.6963 17.4111 11.8368C18.9366 10.9772 20.6582 10.526 22.4093 10.5271C22.5282 10.5271 22.6486 10.5287 22.7644 10.5341Z" fill="url(#paint0_linear_2031_4061)"/>
<path d="M35 5.23188V5.29758C35.0011 6.17914 34.7787 7.0466 34.3537 7.81897C33.9288 8.59134 33.315 9.24345 32.5698 9.71443C32.3702 9.84423 32.161 9.9585 31.944 10.0562C31.2627 10.3679 30.5219 10.528 29.7726 10.5255H22.4122C20.661 10.5246 18.9393 10.976 17.4138 11.8359C15.8883 12.6957 14.6107 13.935 13.7048 15.4336C13.6407 15.5407 13.5781 15.6479 13.5194 15.7574C12.6773 17.2672 12.2366 18.9679 12.2398 20.6967V10.5287H12.2476C12.2413 10.4113 12.2398 10.294 12.2398 10.1751C12.2396 7.97463 12.9526 5.83334 14.272 4.07222C15.5914 2.3111 17.446 1.02502 19.558 0.406745C20.4849 0.137665 21.4454 0.00125811 22.4106 0.00158785H29.7664C30.4535 0.00117683 31.134 0.136159 31.769 0.398822C32.4039 0.661484 32.9809 1.04668 33.4669 1.5324C33.953 2.01812 34.3385 2.59484 34.6016 3.22961C34.8646 3.86438 35 4.54476 35 5.23188Z" fill="url(#paint1_linear_2031_4061)"/>
<path d="M19.1098 0C18.9635 0.0367614 18.8188 0.0782154 18.6764 0.126709C16.6215 0.782794 14.8284 2.07538 13.5564 3.81758C12.2845 5.55979 11.5996 7.66135 11.6007 9.81843C11.6007 10.0531 11.6078 10.2924 11.6257 10.5271H5.22818C4.5414 10.5269 3.86139 10.3914 3.22697 10.1284C2.59254 9.8654 2.01613 9.48002 1.53065 8.99427C1.04517 8.50852 0.660122 7.93191 0.397493 7.29736C0.134863 6.66281 -0.000205235 5.98274 2.34071e-07 5.29599V5.23186C9.4508e-08 3.8451 0.55075 2.51511 1.53116 1.53431C2.51156 0.553509 3.84137 0.00218679 5.22818 0.00156465L19.1098 0Z" fill="url(#paint2_linear_2031_4061)"/>
</g>
<defs>
<linearGradient id="paint0_linear_2031_4061" x1="17.5002" y1="40.8764" x2="17.5002" y2="10.7821" gradientUnits="userSpaceOnUse">
<stop offset="0.12" stop-color="white"/>
<stop offset="1" stop-color="#3A286B"/>
</linearGradient>
<linearGradient id="paint1_linear_2031_4061" x1="7.92284" y1="10.3495" x2="35.776" y2="10.3495" gradientUnits="userSpaceOnUse">
<stop stop-color="white"/>
<stop offset="0.9" stop-color="#3A286B"/>
</linearGradient>
<linearGradient id="paint2_linear_2031_4061" x1="2.34071e-07" y1="5.26314" x2="19.1098" y2="5.26314" gradientUnits="userSpaceOnUse">
<stop offset="1" stop-color="#AA60B2"/>
</linearGradient>
<clipPath id="clip0_2031_4061">
<rect width="35" height="35" fill="white"/>
</clipPath>
</defs>
</svg>
